P3
3 2
255
111 79 15 79 111 63 15 47 79
127 111 31 111 127 79 31 47 63