P3
3 2
255
255 191 31 191 255 127 0 95 255
255 255 31 255 255 255 0 95 127