P3
3 2
255
255 50 50 50 255 50 50 50 255
255 255 50 255 255 255 50 50 50