P3
3 2
255
60 55 20 59 69 43 24 39 40
64 60 23 65 73 45 28 40 39