P3
3 2
255
255 255 86 255 255 255 47 190 255
255 255 86 255 255 255 47 190 255